<svg id="icons" height="512" viewBox="0 0 60 60" width="512" xmlns="http://www.w3.org/2000/svg"><path d="m59.051 36.94-11.041-6.659a1.954 1.954 0 0 0 -2.021 0l-4.079 2.461-7.56-5.042 7.7-4.645a1.976 1.976 0 0 0 .95-1.68v-12.75a1.976 1.976 0 0 0 -.949-1.684l-11.041-6.66a1.954 1.954 0 0 0 -2.021 0l-11.04 6.66a1.976 1.976 0 0 0 -.949 1.684v12.75a1.976 1.976 0 0 0 .949 1.684l7.7 4.645-7.56 5.038-4.08-2.461a1.954 1.954 0 0 0 -2.021 0l-11.04 6.66a1.978 1.978 0 0 0 -.948 1.684v12.75a1.98 1.98 0 0 0 .949 1.685l11.041 6.659a1.957 1.957 0 0 0 2.021 0l11.041-6.66a1.978 1.978 0 0 0 .948-1.684v-4.375h8v4.375a1.98 1.98 0 0 0 .949 1.685l11.041 6.659a1.957 1.957 0 0 0 2.021 0l11.041-6.66a1.978 1.978 0 0 0 .948-1.684v-12.75a1.98 1.98 0 0 0 -.949-1.685zm-12.073-4.946 10.364 6.252-10.354 6.235-10.333-6.235zm-15.978-4.58v-11.2c.014-.008.031-.011.045-.019l9.955-6.01.016 11.161zm-1.022-25.42 10.364 6.252-10.354 6.236-10.333-6.236zm-10.994 8.183 9.979 6.023c.012.007.025.009.037.015v11.176l-10-6.016zm-6.006 21.817 10.364 6.252-10.354 6.235-10.333-6.235zm-10.978 19.381-.015-11.2 9.978 6.025c.012.007.025.009.037.016v11.175zm12 6.039v-11.2c.014-.008.031-.01.045-.019l9.955-6.01.016 11.162zm12-12.414v-6.375a1.98 1.98 0 0 0 -.949-1.685l-5.068-3.056 7.56-5.038 1.447.873a1.957 1.957 0 0 0 2.021 0l1.446-.873 7.56 5.038-5.069 3.057a1.978 1.978 0 0 0 -.948 1.684v6.375zm10 6.375-.015-11.2 9.978 6.025c.012.007.025.009.037.016v11.175zm12 6.039v-11.2c.014-.008.031-.01.045-.019l9.955-6.01.016 11.162z"/></svg>