<svg id="Layer_1" enable-background="new 0 0 96 96" viewBox="0 0 96 96" xmlns="http://www.w3.org/2000/svg"><path d="m94 56c0-4.8310547-2.8756104-8.9938965-7-10.8946533v-1.1053467c0-21.5048828-17.4951172-39-39-39s-39 17.4951172-39 39v1.1053467c-4.1243896 1.9007568-7 6.0635986-7 10.8946533 0 6.6166992 5.3828125 12 12 12h4c1.1044922 0 2-.8955078 2-2v-20c0-1.1044922-.8955078-2-2-2h-4c-.3375244 0-.6694336.0231934-1 .0506592v-.0506592c0-19.2988281 15.7011719-35 35-35s35 15.7011719 35 35v.0506592c-.3305664-.0274658-.6624756-.0506592-1-.0506592h-4c-1.1044922 0-2 .8955078-2 2v20c0 1.1044922.8955078 2 2 2h4c.3375244 0 .6694336-.0231934 1-.0506592v3.0506592c0 6.6166992-5.3828125 12-12 12h-15c0-2.2055664-1.7939453-4-4-4h-10c-2.2060547 0-4 1.7944336-4 4v4c0 2.2055664 1.7939453 4 4 4h10c2.2060547 0 4-1.7944336 4-4h15c8.8222656 0 16-7.1777344 16-16v-4.1053467c4.1243896-1.9007568 7-6.0635986 7-10.8946533zm-78-8v16h-2c-4.4111328 0-8-3.5888672-8-8s3.5888672-8 8-8zm26 39v-4h10l.0014648 1.9855957c-.000061.0049439-.0014648.0094605-.0014648.0144043 0 .0050049.0014038.0096436.0014648.0146484l.0014649 1.9853516zm40-23h-2v-16h2c4.4111328 0 8 3.5888672 8 8s-3.5888672 8-8 8zm-34 5c12.1308594 0 22-9.8691406 22-22s-9.8691406-22-22-22-22 9.8691406-22 22c0 3.9248047 1.0517578 7.7607422 3.0498047 11.1459961l-2.0136719 10.4765625c-.1396484.7275391.1337891 1.4726563.7119141 1.9370117.3613281.2900391.8046875.4404297 1.2519531.4404297.2685547 0 .5380859-.0537109.7929688-.1635742l8.9794922-3.8759766c2.9111328 1.3540039 6.0107421 2.0395508 9.227539 2.0395508zm-16.3222656-3.3339844 1.4462891-7.527832c.0966797-.503418-.0029297-1.0244141-.2792969-1.4560547-1.8613282-2.9052734-2.8447266-6.253418-2.8447266-9.6821289 0-9.925293 8.0751953-18 18-18s18 8.074707 18 18-8.0751953 18-18 18c-2.8916016 0-5.6689453-.6787109-8.2548828-2.0170898-.5322266-.2758789-1.1611328-.2988281-1.7119141-.0600586zm16.3222656-12.6660156h-10c-1.1044922 0-2-.8955078-2-2s.8955078-2 2-2h10c1.1044922 0 2 .8955078 2 2s-.8955078 2-2 2zm-12-10c0-1.1044922.8955078-2 2-2h20c1.1044922 0 2 .8955078 2 2s-.8955078 2-2 2h-20c-1.1044922 0-2-.8955078-2-2z"/></svg>