<?xml version="1.0" encoding="UTF-8"?>
<svg xmlns="http://www.w3.org/2000/svg" version="1.1" xmlns:xlink="http://www.w3.org/1999/xlink" viewBox="0 0 937.6 275.8">
  <defs>
    <style>
      .cls-1 {
        fill: url(#linear-gradient-2);
      }

      .cls-2 {
        fill: url(#linear-gradient-10);
      }

      .cls-3 {
        fill: #fff;
      }

      .cls-4 {
        fill: url(#linear-gradient-4);
      }

      .cls-5 {
        fill: url(#linear-gradient-3);
      }

      .cls-6 {
        fill: url(#linear-gradient-5);
      }

      .cls-7 {
        fill: url(#linear-gradient-8);
      }

      .cls-8 {
        fill: url(#linear-gradient-7);
      }

      .cls-9 {
        fill: url(#linear-gradient-9);
      }

      .cls-10 {
        fill: url(#linear-gradient-11);
      }

      .cls-11 {
        fill: url(#linear-gradient-6);
      }

      .cls-12 {
        fill: url(#linear-gradient);
      }
    </style>
    <linearGradient id="linear-gradient" x1="-97.8" y1="562.6" x2="487.5" y2="-131.2" gradientTransform="translate(0 278) scale(1 -1)" gradientUnits="userSpaceOnUse">
      <stop offset="0" stop-color="#ffcb05"/>
      <stop offset="1" stop-color="#d78f11"/>
    </linearGradient>
    <linearGradient id="linear-gradient-2" x1="-67.4" y1="588.1" x2="517.8" y2="-105.6" gradientTransform="translate(0 278) scale(1 -1)" gradientUnits="userSpaceOnUse">
      <stop offset="0" stop-color="#ffcb05"/>
      <stop offset="1" stop-color="#d78f11"/>
    </linearGradient>
    <linearGradient id="linear-gradient-3" x1="-83.7" y1="574.5" x2="501.6" y2="-119.3" gradientTransform="translate(0 278) scale(1 -1)" gradientUnits="userSpaceOnUse">
      <stop offset="0" stop-color="#ffcb05"/>
      <stop offset="1" stop-color="#d78f11"/>
    </linearGradient>
    <linearGradient id="linear-gradient-4" x1="-126.1" y1="538.6" x2="459.1" y2="-155.1" gradientTransform="translate(0 278) scale(1 -1)" gradientUnits="userSpaceOnUse">
      <stop offset="0" stop-color="#ffcb05"/>
      <stop offset="1" stop-color="#d78f11"/>
    </linearGradient>
    <linearGradient id="linear-gradient-5" x1="-154.2" y1="515" x2="431.1" y2="-178.8" gradientTransform="translate(0 278) scale(1 -1)" gradientUnits="userSpaceOnUse">
      <stop offset="0" stop-color="#ffcb05"/>
      <stop offset="1" stop-color="#d78f11"/>
    </linearGradient>
    <linearGradient id="linear-gradient-6" x1="-171.3" y1="500.5" x2="413.9" y2="-193.2" gradientTransform="translate(0 278) scale(1 -1)" gradientUnits="userSpaceOnUse">
      <stop offset="0" stop-color="#ffcb05"/>
      <stop offset="1" stop-color="#d78f11"/>
    </linearGradient>
    <linearGradient id="linear-gradient-7" x1="-191.2" y1="483.8" x2="394" y2="-210" gradientTransform="translate(0 278) scale(1 -1)" gradientUnits="userSpaceOnUse">
      <stop offset="0" stop-color="#ffcb05"/>
      <stop offset="1" stop-color="#d78f11"/>
    </linearGradient>
    <linearGradient id="linear-gradient-8" x1="-176.7" y1="496" x2="408.6" y2="-197.7" gradientTransform="translate(0 278) scale(1 -1)" gradientUnits="userSpaceOnUse">
      <stop offset="0" stop-color="#ffcb05"/>
      <stop offset="1" stop-color="#d78f11"/>
    </linearGradient>
    <linearGradient id="linear-gradient-9" x1="-128.3" y1="536.8" x2="456.9" y2="-156.9" gradientTransform="translate(0 278) scale(1 -1)" gradientUnits="userSpaceOnUse">
      <stop offset="0" stop-color="#ffcb05"/>
      <stop offset="1" stop-color="#d78f11"/>
    </linearGradient>
    <linearGradient id="linear-gradient-10" x1="-228.4" y1="452.3" x2="356.8" y2="-241.4" gradientTransform="translate(0 278) scale(1 -1)" gradientUnits="userSpaceOnUse">
      <stop offset="0" stop-color="#ffcb05"/>
      <stop offset="1" stop-color="#d78f11"/>
    </linearGradient>
    <linearGradient id="linear-gradient-11" x1="-201.5" y1="475" x2="383.7" y2="-218.7" gradientTransform="translate(0 278) scale(1 -1)" gradientUnits="userSpaceOnUse">
      <stop offset="0" stop-color="#ffcb05"/>
      <stop offset="1" stop-color="#d78f11"/>
    </linearGradient>
  </defs>
  <!-- Generator: Adobe Illustrator 28.7.3, SVG Export Plug-In . SVG Version: 1.2.0 Build 164)  -->
  <g>
    <g id="Layer_2">
      <g>
        <polygon class="cls-12" points="134.3 124.4 194.6 29.8 273.6 29.8 269.2 16.6 187.3 16.6 127.1 111.2 134.3 124.4"/>
        <polygon class="cls-1" points="194 56.2 282.5 56.2 278.1 43.1 194 43.1 194 56.2"/>
        <polygon class="cls-5" points="177.9 85.4 292.4 85.4 287.9 72.3 177.9 72.3 177.9 85.4"/>
        <polygon class="cls-4" points="116.6 92 162.5 16.6 147.1 16.6 109.3 78.7 116.6 92"/>
        <polygon class="cls-6" points="141.3 174.4 90.1 79.3 126.2 16.6 111.1 16.6 75.1 79.1 126.3 174.4 141.3 174.4"/>
        <polygon class="cls-11" points="251.3 187.6 215.9 244.7 134.8 244.7 141.9 257.9 223.1 257.9 266.8 187.6 251.3 187.6"/>
        <polygon class="cls-8" points="216.5 218.3 120.6 218.3 127.7 231.4 216.5 231.4 216.5 218.3"/>
        <polygon class="cls-7" points="112 202.2 232.5 202.2 232.5 189.1 104.9 189.1 112 202.2"/>
        <polygon class="cls-9" points="292.6 187.6 247.4 257.7 263.1 257.7 308.2 187.6 292.6 187.6"/>
        <polygon class="cls-2" points="6.6 82.4 103.8 259.2 118.8 259.2 21.6 82.4 6.6 82.4"/>
        <polygon class="cls-10" points="105.8 174.4 55.2 82.4 40.2 82.4 90.8 174.4 105.8 174.4"/>
      </g>
      <g>
        <path class="cls-3" d="M357.5,115.5c-6.2-3.2-11-7.9-14.3-13.9-3.4-6.1-5.1-13.3-5.1-21.6s1.7-15.6,5.1-21.7c3.4-6.1,8.2-10.8,14.3-14,6.1-3.2,13.3-4.8,21.4-4.8s18.2,2.3,25.1,6.9c6.9,4.6,11.5,11.2,13.9,19.6h-12.3c-1.9-5-5.2-8.9-9.7-11.7-4.6-2.8-10.2-4.2-16.9-4.2s-16.7,2.6-21.7,7.7c-5,5.2-7.4,12.5-7.4,22.2s2.5,16.8,7.4,21.9c5,5.1,12.2,7.7,21.7,7.7s12.5-1.3,16.9-4c4.5-2.7,7.7-6.5,9.7-11.6h12.2c-2.7,8.8-7.4,15.4-14.2,19.7-6.8,4.3-15,6.5-24.7,6.5s-15.3-1.6-21.5-4.8Z"/>
        <path class="cls-3" d="M427.4,63.4h10.7v6.9c2.1-2.7,4.9-4.8,8.2-6.2,3.3-1.4,6.8-2.1,10.4-2.1s4.2.2,6.2.7l-1.4,10c-2.1-.4-4-.6-5.8-.6-4.9,0-9.1,1.1-12.5,3.4-3.4,2.3-5.2,5.6-5.2,9.9v33.5h-10.7v-55.6Z"/>
        <path class="cls-3" d="M476.6,137l2.6-9c2.7.7,4.9,1.1,6.4,1.1s4-.6,5.7-1.8c1.6-1.2,3.1-3.3,4.6-6.2l1.9-4c.3-.9.4-1.5.4-1.9s-.2-1.1-.6-1.9l-26.8-50.2h12.7l20.7,40.9,18.9-40.9h12l-29.3,60.9c-2.6,5.4-5.2,9.3-7.8,11.6-2.6,2.3-6.2,3.4-10.7,3.4s-7.3-.7-10.6-2Z"/>
        <path class="cls-3" d="M543.5,63.4h10.7v7.6c2.1-3.3,4.9-5.7,8.4-7.4,3.5-1.7,7.5-2.5,12.1-2.5,8.9,0,15.8,2.6,20.8,7.9,5,5.3,7.4,12.5,7.4,21.5s-1.2,11.4-3.6,15.8c-2.4,4.5-5.8,7.9-10.2,10.3s-9.6,3.6-15.6,3.6c-8.5,0-15-2.9-19.3-8.7v26.2h-10.7V63.4ZM558.8,105.8c3.1,3.1,7.8,4.6,14,4.6s10.6-1.6,13.9-4.9c3.3-3.3,4.9-8.3,4.9-14.9s-1.6-11.5-4.9-14.8c-3.3-3.3-7.7-4.9-13.2-4.9s-10.8,1.6-14.3,4.7c-3.4,3.1-5.2,7.3-5.2,12.5v4.6c0,5.7,1.6,10.1,4.7,13.2Z"/>
        <path class="cls-3" d="M621.9,115c-2.7-3.2-4.2-7.9-4.4-14.2v-27.8h-9.6v-9.7h9.6v-20.7h10.8v20.7h18.3v9.7h-18.3v28.7c0,5.5,3.1,8.2,9.2,8.2s5.4-.4,8.6-1.1l2.6,8.6c-2.7.9-5,1.5-6.9,1.9-2,.4-4,.6-6.2.6-6.4,0-10.9-1.6-13.6-4.8Z"/>
        <path class="cls-3" d="M659.7,112.5c-5.4-5.2-8.2-12.5-8.2-21.7s1.3-11.4,3.8-15.8c2.6-4.5,6.2-7.9,10.9-10.3,4.7-2.4,10.2-3.6,16.4-3.6,9.5,0,17,2.6,22.5,7.8,5.5,5.2,8.3,12.5,8.3,21.7s-1.3,11.3-3.8,15.8c-2.6,4.4-6.2,7.9-10.8,10.3s-10.2,3.6-16.4,3.6c-9.6,0-17.2-2.6-22.6-7.8ZM667.6,105.2c3.3,3.4,8.2,5.2,14.8,5.2s11.7-1.7,15-5.2c3.3-3.5,5-8.3,5-14.6s-1.7-11.1-5-14.6c-3.3-3.5-8.3-5.2-15-5.2s-11.5,1.7-14.8,5.2c-3.3,3.5-4.9,8.4-4.9,14.7s1.6,11.1,4.9,14.5Z"/>
        <path class="cls-3" d="M338.1,228.1v-77.7h31c9.4,0,17.1,1.7,22.9,5.2,5.9,3.5,8.8,9.3,8.8,17.4s-4.8,16.7-14.4,20.4l19.6,34.7h-13.3l-17.4-32.1c-2.1.2-4.2.3-6.4.3h-19.2v31.8h-11.4ZM369.6,185.8c5,0,9-.5,11.8-1.4,2.8-.9,4.8-2.3,5.9-4.1,1.1-1.8,1.7-4.2,1.7-7.2s-.6-5.1-1.8-6.8c-1.2-1.7-3.3-3-6.3-3.9-3-.9-7-1.3-12.2-1.3h-19.2v24.7h20.1Z"/>
        <path class="cls-3" d="M411,184.2c2.6-4.5,6.2-7.9,10.9-10.3,4.7-2.4,10.2-3.6,16.4-3.6,9.5,0,17,2.6,22.6,7.9,5.6,5.3,8.3,12.5,8.2,21.7v3.6h-50.3c.4,5.1,2.2,9.1,5.4,11.9,3.3,2.9,7.9,4.3,13.8,4.3s9.4-1,12.6-3.1c3.1-2.1,5.2-5.1,6.2-9h11.6c-1.6,7.1-5.1,12.6-10.4,16.3-5.3,3.8-12,5.7-19.9,5.7s-17.2-2.6-22.6-7.8c-5.4-5.2-8.2-12.5-8.2-21.7s1.3-11.4,3.8-15.8ZM451.4,184c-3.3-2.6-7.7-3.9-13.4-3.9s-10.1,1.3-13.3,3.9c-3.3,2.6-5.1,6.3-5.4,10.9h37.8c-.4-4.7-2.3-8.4-5.6-11Z"/>
        <path class="cls-3" d="M528.5,223.3c-5.4,4.2-12.4,6.3-20.7,6.3s-17.2-2.6-22.6-7.8c-5.4-5.2-8.2-12.5-8.2-21.7s1.3-11.4,3.8-15.8c2.6-4.5,6.2-7.9,10.9-10.3,4.7-2.4,10.2-3.6,16.4-3.6s15.4,2.1,20.8,6.3c5.3,4.2,8.5,10.2,9.6,17.8h-11c-.8-4.6-2.9-8.1-6.3-10.6-3.4-2.5-7.9-3.7-13.3-3.7s-11.5,1.7-14.8,5.2c-3.3,3.5-4.9,8.4-4.9,14.7s1.6,11.1,4.9,14.5,8.2,5.2,14.8,5.2,10.1-1.3,13.4-3.8c3.3-2.6,5.4-6.1,6.2-10.7h11.1c-1.2,7.9-4.5,14-9.9,18.2Z"/>
        <path class="cls-3" d="M544.8,150.5h10.7v77.8h-10.7v-77.8Z"/>
        <path class="cls-3" d="M574.3,175.3c4.1-3.1,10.5-4.8,19-4.9,8.8,0,15.2,1.8,19.3,5.3,4,3.6,6.1,8.9,6.1,16.1v36.5h-10.7v-7.4c-2.2,2.6-4.9,4.6-8.1,6.1-3.1,1.5-7.1,2.2-11.7,2.2-7.3,0-13-1.5-17.3-4.6-4.3-3-6.4-7.5-6.4-13.3s2.9-11.9,8.8-14.4c5.9-2.5,13.9-3.8,23.9-3.9l10.6-.2v-1.4c0-4.1-1-7.1-3.1-8.8-2.1-1.7-5.9-2.6-11.4-2.6s-8.9.8-11.1,2.4c-2.2,1.6-3.4,4.2-3.6,7.8h-10.9c.2-6.7,2.4-11.7,6.6-14.8ZM588.7,219.6c5.9,0,10.6-1.1,14.1-3.2,3.4-2.1,5.2-5.2,5.2-9.2v-6.1l-9.8.3c-5.9.2-10.4.7-13.7,1.4-3.3.7-5.6,1.7-6.9,3.1-1.4,1.4-2.1,3.2-2.1,5.5,0,5.5,4.4,8.2,13.2,8.2Z"/>
        <path class="cls-3" d="M628.6,150.5h10.9v13.1h-10.9v-13.1ZM628.7,172.5h10.7v55.8h-10.7v-55.8Z"/>
        <path class="cls-3" d="M648.9,172.5h10.7v6.9c2.4-2.8,5.3-5,8.7-6.6,3.3-1.6,6.7-2.4,10.1-2.4s8.2.8,11.2,2.3c2.9,1.6,5.2,4,6.7,7.2,2.8-3.1,6.1-5.5,9.7-7.1,3.7-1.6,7.6-2.4,11.7-2.4,6.7,0,11.9,1.7,15.4,5.1,3.6,3.4,5.3,8.3,5.3,14.8v38h-10.9v-35.6c0-4.4-.9-7.5-2.6-9.4-1.7-1.9-4.6-2.9-8.8-2.9s-5.3.5-7.9,1.4c-2.6,1-4.8,2.4-6.6,4.3-1.7,1.9-2.6,4.3-2.6,7.2v34.9h-10.8v-35.6c0-4.2-.9-7.3-2.7-9.3-1.8-2-4.7-3-8.8-3s-5.7.6-8.3,1.8c-2.7,1.2-4.8,2.9-6.5,5.2-1.7,2.2-2.5,4.8-2.5,7.8v33.1h-10.7v-55.8Z"/>
        <path class="cls-3" d="M746.8,172.7h10.7v7.6c2.1-3.3,4.9-5.7,8.4-7.4,3.5-1.7,7.5-2.5,12.1-2.5,8.9,0,15.8,2.6,20.8,7.9,5,5.3,7.4,12.5,7.4,21.5s-1.2,11.4-3.6,15.8c-2.4,4.5-5.8,7.9-10.2,10.3-4.4,2.4-9.6,3.6-15.6,3.6-8.5,0-15-2.9-19.3-8.7v26.2h-10.7v-74.5ZM762,215.1c3.1,3.1,7.8,4.6,14,4.6s10.7-1.6,13.9-4.9c3.3-3.3,4.9-8.3,4.9-14.9s-1.7-11.5-4.9-14.8c-3.3-3.3-7.7-4.9-13.2-4.9s-10.8,1.6-14.3,4.7c-3.4,3.2-5.2,7.3-5.2,12.5v4.6c0,5.7,1.6,10.1,4.7,13.2Z"/>
        <path class="cls-3" d="M815.7,172.7h10.7v6.9c2.1-2.7,4.9-4.8,8.2-6.2,3.3-1.4,6.8-2.1,10.4-2.1s4.2.2,6.2.7l-1.4,10c-2.1-.4-4-.6-5.8-.6-4.9,0-9.1,1.1-12.5,3.4-3.4,2.3-5.2,5.6-5.2,9.9v33.5h-10.7v-55.6Z"/>
        <path class="cls-3" d="M862.9,221.7c-5.4-5.2-8.2-12.5-8.2-21.7s1.3-11.4,3.8-15.8c2.6-4.5,6.2-7.9,10.9-10.3,4.7-2.4,10.2-3.6,16.4-3.6,9.5,0,17,2.6,22.5,7.8,5.5,5.2,8.3,12.5,8.3,21.7s-1.3,11.3-3.8,15.8-6.2,7.9-10.8,10.3c-4.7,2.4-10.2,3.6-16.4,3.6-9.6,0-17.2-2.6-22.6-7.8ZM870.7,214.5c3.3,3.4,8.2,5.2,14.8,5.2s11.7-1.7,15-5.2c3.3-3.5,5-8.3,5-14.6s-1.7-11.1-5-14.6c-3.3-3.5-8.3-5.2-15-5.2s-11.5,1.7-14.8,5.2c-3.3,3.5-4.9,8.4-4.9,14.7s1.6,11.1,4.9,14.5Z"/>
      </g>
    </g>
  </g>
</svg>