<?xml version="1.0" encoding="UTF-8"?>
<svg id="Layer_2" xmlns="http://www.w3.org/2000/svg" xmlns:xlink="http://www.w3.org/1999/xlink" viewBox="0 0 1283.81 160.27">
  <defs>
    <style>
      .cls-1 {
        fill: url(#linear-gradient-15);
      }

      .cls-2 {
        fill: url(#linear-gradient-13);
      }

      .cls-3 {
        fill: url(#linear-gradient-2);
      }

      .cls-4 {
        fill: url(#linear-gradient-25);
      }

      .cls-5 {
        fill: url(#linear-gradient-10);
      }

      .cls-6 {
        fill: url(#linear-gradient-12);
      }

      .cls-7 {
        fill: #fff;
      }

      .cls-8 {
        fill: url(#linear-gradient-4);
      }

      .cls-9 {
        fill: url(#linear-gradient-3);
      }

      .cls-10 {
        fill: url(#linear-gradient-5);
      }

      .cls-11 {
        fill: url(#linear-gradient-22);
      }

      .cls-12 {
        fill: url(#linear-gradient-24);
      }

      .cls-13 {
        fill: url(#linear-gradient-8);
      }

      .cls-14 {
        fill: url(#linear-gradient-14);
      }

      .cls-15 {
        fill: url(#linear-gradient-20);
      }

      .cls-16 {
        fill: url(#linear-gradient-17);
      }

      .cls-17 {
        fill: url(#linear-gradient-7);
      }

      .cls-18 {
        fill: url(#linear-gradient-9);
      }

      .cls-19 {
        fill: url(#linear-gradient-11);
      }

      .cls-20 {
        fill: url(#linear-gradient-19);
      }

      .cls-21 {
        opacity: .39;
      }

      .cls-22 {
        fill: url(#linear-gradient-6);
      }

      .cls-23 {
        fill: url(#linear-gradient-21);
      }

      .cls-24 {
        fill: url(#linear-gradient-16);
      }

      .cls-25 {
        fill: url(#linear-gradient);
      }

      .cls-26 {
        fill: url(#linear-gradient-23);
      }

      .cls-27 {
        fill: url(#linear-gradient-18);
      }
    </style>
    <linearGradient id="linear-gradient" x1="-66.38" y1="-191.52" x2="305.79" y2="249.65" gradientUnits="userSpaceOnUse">
      <stop offset="0" stop-color="#ffcb05"/>
      <stop offset="1" stop-color="#d78f11"/>
    </linearGradient>
    <linearGradient id="linear-gradient-2" x1="-47.09" y1="-207.79" x2="325.08" y2="233.38" xlink:href="#linear-gradient"/>
    <linearGradient id="linear-gradient-3" x1="-57.41" y1="-199.09" x2="314.76" y2="242.09" xlink:href="#linear-gradient"/>
    <linearGradient id="linear-gradient-4" x1="-84.41" y1="-176.31" x2="287.76" y2="264.86" xlink:href="#linear-gradient"/>
    <linearGradient id="linear-gradient-5" x1="-102.26" y1="-161.25" x2="269.92" y2="279.92" xlink:href="#linear-gradient"/>
    <linearGradient id="linear-gradient-6" x1="-113.14" y1="-152.07" x2="259.04" y2="289.1" xlink:href="#linear-gradient"/>
    <linearGradient id="linear-gradient-7" x1="-125.79" y1="-141.4" x2="246.39" y2="299.77" xlink:href="#linear-gradient"/>
    <linearGradient id="linear-gradient-8" x1="-116.55" y1="-149.19" x2="255.62" y2="291.98" xlink:href="#linear-gradient"/>
    <linearGradient id="linear-gradient-9" x1="-85.8" y1="-175.14" x2="286.38" y2="266.03" xlink:href="#linear-gradient"/>
    <linearGradient id="linear-gradient-10" x1="-149.47" y1="-121.42" x2="222.7" y2="319.75" xlink:href="#linear-gradient"/>
    <linearGradient id="linear-gradient-11" x1="-132.35" y1="-135.86" x2="239.82" y2="305.31" xlink:href="#linear-gradient"/>
    <linearGradient id="linear-gradient-12" x1="63.75" y1="-9.8" x2="1497.75" y2="620.2" xlink:href="#linear-gradient"/>
    <linearGradient id="linear-gradient-13" x1="70.39" y1="-24.91" x2="1504.39" y2="605.09" xlink:href="#linear-gradient"/>
    <linearGradient id="linear-gradient-14" x1="76.6" y1="-39.04" x2="1510.6" y2="590.96" xlink:href="#linear-gradient"/>
    <linearGradient id="linear-gradient-15" x1="89.05" y1="-67.38" x2="1523.05" y2="562.62" xlink:href="#linear-gradient"/>
    <linearGradient id="linear-gradient-16" x1="113.16" y1="-122.25" x2="1547.16" y2="507.75" xlink:href="#linear-gradient"/>
    <linearGradient id="linear-gradient-17" x1="120.19" y1="-138.26" x2="1554.19" y2="491.74" xlink:href="#linear-gradient"/>
    <linearGradient id="linear-gradient-18" x1="139.71" y1="-182.71" x2="1573.71" y2="447.29" xlink:href="#linear-gradient"/>
    <linearGradient id="linear-gradient-19" x1="149.84" y1="-205.75" x2="1583.84" y2="424.25" xlink:href="#linear-gradient"/>
    <linearGradient id="linear-gradient-20" x1="153.02" y1="-212.99" x2="1587.02" y2="417.01" xlink:href="#linear-gradient"/>
    <linearGradient id="linear-gradient-21" x1="163.37" y1="-236.54" x2="1597.37" y2="393.46" xlink:href="#linear-gradient"/>
    <linearGradient id="linear-gradient-22" x1="175.06" y1="-263.17" x2="1609.06" y2="366.83" xlink:href="#linear-gradient"/>
    <linearGradient id="linear-gradient-23" x1="186.81" y1="-289.9" x2="1620.81" y2="340.1" xlink:href="#linear-gradient"/>
    <linearGradient id="linear-gradient-24" x1="206.2" y1="-334.04" x2="1640.2" y2="295.96" xlink:href="#linear-gradient"/>
    <linearGradient id="linear-gradient-25" x1="216.77" y1="-358.1" x2="1650.77" y2="271.9" xlink:href="#linear-gradient"/>
  </defs>
  <g id="Layer_1-2" data-name="Layer_1">
    <g class="cls-21">
      <g>
        <polygon class="cls-25" points="81.22 68.54 119.53 8.36 169.8 8.36 166.98 0 114.94 0 76.63 60.16 81.22 68.54"/>
        <polygon class="cls-3" points="119.18 25.18 175.46 25.18 172.65 16.82 119.18 16.82 119.18 25.18"/>
        <polygon class="cls-9" points="108.96 43.77 181.73 43.77 178.91 35.41 108.96 35.41 108.96 43.77"/>
        <polygon class="cls-8" points="69.94 47.94 99.15 0 89.37 0 65.31 39.48 69.94 47.94"/>
        <polygon class="cls-10" points="85.63 100.36 53.1 39.89 76.08 0 66.42 0 43.53 39.76 76.14 100.36 85.63 100.36"/>
        <polygon class="cls-22" points="155.62 108.72 133.11 145.08 81.53 145.08 86.02 153.44 137.7 153.44 165.45 108.72 155.62 108.72"/>
        <polygon class="cls-17" points="133.46 128.26 72.51 128.26 77 136.62 133.46 136.62 133.46 128.26"/>
        <polygon class="cls-13" points="67.03 118.04 143.68 118.04 143.68 109.67 62.54 109.67 67.03 118.04"/>
        <polygon class="cls-18" points="181.88 108.72 153.15 153.33 163.1 153.33 191.82 108.72 181.88 108.72"/>
        <polygon class="cls-5" points="0 41.82 61.8 154.26 71.34 154.26 9.54 41.82 0 41.82"/>
        <polygon class="cls-19" points="63.09 100.36 30.92 41.82 21.37 41.82 53.54 100.36 63.09 100.36"/>
      </g>
      <path class="cls-6" d="M255.65,128.51c-12.66,0-22.75-3.58-30.27-10.76-7.52-7.17-11.28-17.48-11.28-30.94v-24.63c0-13.45,3.76-23.76,11.28-30.94,7.52-7.17,17.61-10.76,30.27-10.76s22.43,3.46,29.31,10.39c6.87,6.93,10.31,16.42,10.31,28.49v.89h-17.51v-1.34c0-6.53-1.81-11.89-5.42-16.1-3.61-4.2-9.18-6.31-16.69-6.31s-13.08,2.25-17.29,6.75c-4.21,4.5-6.31,10.71-6.31,18.62v25.22c0,7.82,2.1,14,6.31,18.55,4.2,4.55,9.96,6.83,17.29,6.83s13.08-2.1,16.69-6.31c3.61-4.2,5.42-9.57,5.42-16.1v-2.52h17.51v2.08c0,12.07-3.44,21.57-10.31,28.49-6.88,6.93-16.64,10.39-29.31,10.39Z"/>
      <path class="cls-2" d="M309.67,126.43V53.13h16.77v8.46h2.52c1.09-3.06,2.92-5.29,5.49-6.68,2.57-1.38,5.64-2.08,9.2-2.08h8.9v15.13h-9.2c-4.95,0-8.95,1.31-12.02,3.93-3.07,2.62-4.6,6.65-4.6,12.09v42.44h-17.06Z"/>
      <path class="cls-14" d="M372.87,156.11v-14.84h40.51c2.77,0,4.16-1.48,4.16-4.45v-20.48h-2.52c-.79,1.78-2.08,3.54-3.86,5.27-1.78,1.73-4.15,3.17-7.12,4.3-2.97,1.14-6.73,1.71-11.28,1.71-5.64,0-10.64-1.26-14.99-3.78-4.35-2.52-7.72-6.08-10.09-10.68-2.37-4.6-3.56-9.96-3.56-16.1v-43.92h16.91v42.59c0,5.94,1.46,10.34,4.38,13.21,2.92,2.87,7.05,4.3,12.39,4.3,6.03,0,10.81-1.98,14.32-5.94,3.51-3.95,5.27-9.64,5.27-17.06v-37.1h16.91v87.25c0,4.85-1.39,8.68-4.15,11.5-2.77,2.82-6.53,4.23-11.28,4.23h-46Z"/>
      <path class="cls-1" d="M453,156.11V53.13h16.77v9.64h2.52c1.68-3.07,4.38-5.79,8.09-8.16,3.71-2.37,9.03-3.56,15.95-3.56,5.93,0,11.45,1.46,16.54,4.38,5.09,2.92,9.17,7.2,12.24,12.84,3.07,5.64,4.6,12.42,4.6,20.33v2.37c0,7.92-1.53,14.69-4.6,20.33-3.07,5.64-7.12,9.92-12.17,12.84-5.05,2.92-10.59,4.38-16.62,4.38-4.65,0-8.53-.54-11.65-1.63-3.12-1.09-5.64-2.52-7.57-4.3-1.93-1.78-3.44-3.56-4.53-5.34h-2.52v38.88h-17.06ZM491.28,113.67c6.23,0,11.35-2,15.36-6.01,4.01-4.01,6.01-9.72,6.01-17.14v-1.48c0-7.52-2.03-13.25-6.08-17.21-4.06-3.96-9.15-5.94-15.28-5.94s-11.25,1.98-15.36,5.94c-4.11,3.96-6.16,9.7-6.16,17.21v1.48c0,7.42,2.05,13.13,6.16,17.14,4.1,4.01,9.22,6.01,15.36,6.01Z"/>
      <path class="cls-24" d="M570.22,126.43c-4.75,0-8.53-1.41-11.35-4.23-2.82-2.82-4.23-6.65-4.23-11.5v-43.48h-19.14v-14.1h19.14v-23.59h17.06v23.59h21.07v14.1h-21.07v40.66c0,2.97,1.38,4.45,4.15,4.45h14.69v14.1h-20.33Z"/>
      <path class="cls-16" d="M639.22,128.51c-7.32,0-13.87-1.51-19.66-4.53-5.79-3.02-10.34-7.32-13.65-12.91-3.31-5.59-4.97-12.29-4.97-20.11v-2.37c0-7.81,1.66-14.54,4.97-20.18,3.31-5.64,7.86-9.94,13.65-12.91,5.79-2.97,12.34-4.45,19.66-4.45s13.85,1.48,19.59,4.45c5.74,2.97,10.26,7.27,13.58,12.91,3.31,5.64,4.97,12.37,4.97,20.18v2.37c0,7.82-1.66,14.52-4.97,20.11-3.32,5.59-7.84,9.89-13.58,12.91-5.74,3.02-12.27,4.53-19.59,4.53ZM639.22,113.37c6.23,0,11.33-2,15.28-6.01,3.96-4.01,5.93-9.62,5.93-16.84v-1.48c0-7.22-1.98-12.84-5.93-16.84-3.96-4.01-9.05-6.01-15.28-6.01s-11.33,2-15.28,6.01c-3.96,4.01-5.93,9.62-5.93,16.84v1.48c0,7.22,1.98,12.83,5.93,16.84,3.96,4.01,9.05,6.01,15.28,6.01Z"/>
      <path class="cls-27" d="M734.65,132.67c-12.66,0-22.75-3.58-30.27-10.76-7.52-7.17-11.28-17.48-11.28-30.94v-24.63c0-13.45,3.76-23.76,11.28-30.94,7.52-7.17,17.61-10.76,30.27-10.76s22.43,3.46,29.31,10.39c6.87,6.93,10.31,16.42,10.31,28.49v.89h-17.51v-1.34c0-6.53-1.81-11.89-5.42-16.1-3.61-4.2-9.18-6.31-16.69-6.31s-13.08,2.25-17.29,6.75c-4.21,4.5-6.31,10.71-6.31,18.62v25.22c0,7.82,2.1,14,6.31,18.55,4.2,4.55,9.96,6.83,17.29,6.83s13.08-2.1,16.69-6.31c3.61-4.2,5.42-9.57,5.42-16.1v-2.52h17.51v2.08c0,12.07-3.44,21.57-10.31,28.49-6.88,6.93-16.64,10.39-29.31,10.39Z"/>
      <path class="cls-20" d="M788.67,130.59V26.73h17.06v103.87h-17.06Z"/>
      <path class="cls-15" d="M847.13,132.67c-5.15,0-9.79-.92-13.95-2.75-4.15-1.83-7.44-4.48-9.87-7.94-2.43-3.46-3.64-7.72-3.64-12.76s1.21-9.1,3.64-12.46c2.42-3.36,5.76-5.91,10.01-7.64,4.25-1.73,9.1-2.6,14.54-2.6h21.22v-4.45c0-3.86-1.19-7-3.56-9.42-2.37-2.42-6.08-3.64-11.13-3.64s-8.68,1.16-11.2,3.49c-2.52,2.32-4.18,5.32-4.97,8.98l-15.73-5.19c1.19-3.86,3.09-7.37,5.71-10.53,2.62-3.17,6.11-5.71,10.46-7.64,4.35-1.93,9.69-2.89,16.03-2.89,9.59,0,17.14,2.4,22.63,7.2,5.49,4.8,8.23,11.75,8.23,20.85v28.79c0,2.97,1.38,4.45,4.16,4.45h6.23v14.1h-12.02c-3.56,0-6.48-.89-8.75-2.67-2.28-1.78-3.41-4.2-3.41-7.27v-.3h-2.52c-.59,1.39-1.63,3.07-3.12,5.05-1.48,1.98-3.73,3.69-6.75,5.12-3.02,1.43-7.1,2.15-12.24,2.15ZM849.95,118.72c5.64,0,10.24-1.61,13.8-4.82,3.56-3.21,5.34-7.54,5.34-12.98v-1.48h-20.18c-3.66,0-6.63.79-8.9,2.37-2.28,1.58-3.41,3.91-3.41,6.97s1.19,5.37,3.56,7.2c2.37,1.83,5.64,2.75,9.79,2.75Z"/>
      <path class="cls-7" d="M1247.24,104.93c-3.07,0-5.71-1.01-7.94-3.04-2.22-2.03-3.34-4.72-3.34-8.09s1.11-6.06,3.34-8.09c2.23-2.03,4.87-3.04,7.94-3.04,3.27,0,5.96,1.02,8.09,3.04,2.13,2.03,3.19,4.72,3.19,8.09s-1.06,6.06-3.19,8.09c-2.13,2.03-4.82,3.04-8.09,3.04Z"/>
      <rect class="cls-23" x="907.07" y="57.29" width="17.06" height="73.3"/>
      <path class="cls-11" d="M942.83,130.59V57.29h16.77v8.16h2.52c1.28-2.47,3.44-4.67,6.45-6.6,3.02-1.93,7.05-2.89,12.09-2.89,5.34,0,9.64,1.09,12.91,3.27,3.26,2.18,5.74,4.95,7.42,8.31h2.37c1.68-3.36,4.1-6.13,7.27-8.31,3.16-2.17,7.66-3.27,13.5-3.27,4.55,0,8.68.99,12.39,2.97,3.71,1.98,6.68,4.9,8.9,8.75,2.23,3.86,3.34,8.66,3.34,14.39v48.52h-17.06v-47.33c0-4.25-1.14-7.49-3.41-9.72-2.28-2.23-5.44-3.34-9.5-3.34-4.45,0-7.99,1.46-10.61,4.38-2.62,2.92-3.93,7.1-3.93,12.54v43.48h-16.91v-47.33c0-4.25-1.14-7.49-3.41-9.72-2.28-2.23-5.44-3.34-9.5-3.34-4.55,0-8.11,1.46-10.68,4.38-2.57,2.92-3.86,7.1-3.86,12.54v43.48h-17.06Z"/>
      <path class="cls-26" d="M1066.73,160.27V57.29h16.77v9.64h2.52c1.68-3.06,4.38-5.79,8.09-8.16,3.71-2.37,9.03-3.56,15.95-3.56,5.93,0,11.45,1.46,16.54,4.38,5.09,2.92,9.17,7.2,12.24,12.84,3.07,5.64,4.6,12.42,4.6,20.33v2.37c0,7.91-1.53,14.69-4.6,20.33-3.07,5.64-7.12,9.92-12.17,12.83-5.05,2.92-10.59,4.38-16.62,4.38-4.65,0-8.53-.55-11.65-1.63-3.12-1.09-5.64-2.52-7.57-4.3-1.93-1.78-3.44-3.56-4.53-5.34h-2.52v38.88h-17.06ZM1105.01,117.83c6.23,0,11.35-2,15.36-6.01,4.01-4.01,6.01-9.72,6.01-17.14v-1.48c0-7.52-2.03-13.25-6.08-17.21-4.06-3.95-9.15-5.93-15.28-5.93s-11.25,1.98-15.36,5.93c-4.11,3.96-6.16,9.7-6.16,17.21v1.48c0,7.42,2.05,13.13,6.16,17.14,4.1,4.01,9.22,6.01,15.36,6.01Z"/>
      <path class="cls-12" d="M1158.58,130.59V57.29h16.77v8.46h2.52c1.09-3.07,2.92-5.29,5.49-6.68,2.57-1.38,5.64-2.08,9.2-2.08h8.9v15.13h-9.2c-4.95,0-8.95,1.31-12.02,3.93-3.07,2.62-4.6,6.65-4.6,12.09v42.44h-17.06Z"/>
      <path class="cls-4" d="M1245.68,132.67c-7.32,0-13.87-1.51-19.66-4.53-5.79-3.02-10.34-7.32-13.65-12.91-3.31-5.59-4.97-12.29-4.97-20.11v-2.37c0-7.81,1.66-14.54,4.97-20.18,3.31-5.64,7.86-9.94,13.65-12.91,5.79-2.97,12.34-4.45,19.66-4.45s13.85,1.48,19.59,4.45c5.74,2.97,10.26,7.27,13.58,12.91,3.31,5.64,4.97,12.37,4.97,20.18v2.37c0,7.82-1.66,14.52-4.97,20.11-3.32,5.59-7.84,9.89-13.58,12.91-5.74,3.02-12.27,4.53-19.59,4.53ZM1245.68,117.54c6.23,0,11.33-2,15.28-6.01,3.96-4.01,5.93-9.62,5.93-16.84v-1.48c0-7.22-1.98-12.83-5.93-16.84-3.96-4.01-9.05-6.01-15.28-6.01s-11.33,2-15.28,6.01c-3.96,4.01-5.93,9.62-5.93,16.84v1.48c0,7.22,1.98,12.83,5.93,16.84,3.96,4.01,9.05,6.01,15.28,6.01Z"/>
    </g>
  </g>
</svg>