<?xml version="1.0" encoding="UTF-8" standalone="no"?>
<!-- Created with Inkscape (http://www.inkscape.org/) -->

<svg
   version="1.1"
   id="svg9"
   xml:space="preserve"
   width="682.66669"
   height="682.66669"
   viewBox="0 0 682.66669 682.66669"
   xmlns="http://www.w3.org/2000/svg"
   xmlns:svg="http://www.w3.org/2000/svg"><defs
     id="defs13"><clipPath
       clipPathUnits="userSpaceOnUse"
       id="clipPath23"><path
         d="M 0,512 H 512 V 0 H 0 Z"
         id="path21" /></clipPath></defs><g
     id="g15"
     transform="matrix(1.3333333,0,0,-1.3333333,0,682.66667)"><g
       id="g17"><g
         id="g19"
         clip-path="url(#clipPath23)"><g
           id="g25"
           transform="translate(89.1714,413.1362)"><path
             d="M 0,0 C 8.458,9.68 17.684,18.664 27.582,26.857"
             style="fill:none;stroke:#000000;stroke-width:15;stroke-linecap:round;stroke-linejoin:round;stroke-miterlimit:10;stroke-dasharray:none;stroke-opacity:1"
             id="path27" /></g><g
           id="g29"
           transform="translate(36.3853,309.8638)"><path
             d="M 0,0 C 5.971,25.963 16.165,50.302 29.814,72.247"
             style="fill:none;stroke:#000000;stroke-width:15;stroke-linecap:round;stroke-linejoin:round;stroke-miterlimit:10;stroke-dasharray:none;stroke-opacity:1"
             id="path31" /></g><g
           id="g33"
           transform="translate(115.269,73.2451)"><path
             d="m 0,0 c -51.938,43.706 -84.968,109.354 -84.968,182.755 0,2.788 0.048,5.565 0.142,8.329"
             style="fill:none;stroke:#000000;stroke-width:15;stroke-linecap:round;stroke-linejoin:round;stroke-miterlimit:10;stroke-dasharray:none;stroke-opacity:1"
             id="path35" /></g><g
           id="g37"
           transform="translate(382.293,47.5322)"><path
             d="m 0,0 c -34.035,-18.982 -73.208,-29.792 -114.893,-29.792 -41.543,0 -80.59,10.736 -114.544,29.599"
             style="fill:none;stroke:#000000;stroke-width:15;stroke-linecap:round;stroke-linejoin:round;stroke-miterlimit:10;stroke-dasharray:none;stroke-opacity:1"
             id="path39" /></g><g
           id="g41"
           transform="translate(468.4468,382.3589)"><path
             d="m 0,0 c 22.845,-36.627 36.053,-79.943 36.053,-126.359 0,-73.294 -32.933,-138.858 -84.741,-182.564"
             style="fill:none;stroke:#000000;stroke-width:15;stroke-linecap:round;stroke-linejoin:round;stroke-miterlimit:10;stroke-dasharray:none;stroke-opacity:1"
             id="path43" /></g><g
           id="g45"
           transform="translate(415.9453,441.7139)"><path
             d="M 0,0 C 8.774,-7.096 17.036,-14.808 24.719,-23.069"
             style="fill:none;stroke:#000000;stroke-width:15;stroke-linecap:round;stroke-linejoin:round;stroke-miterlimit:10;stroke-dasharray:none;stroke-opacity:1"
             id="path47" /></g><g
           id="g49"
           transform="translate(154.3379,465.4775)"><path
             d="m 0,0 c 33.606,18.355 72.123,28.782 113.063,28.782 39.889,0 77.478,-9.899 110.466,-27.385"
             style="fill:none;stroke:#000000;stroke-width:15;stroke-linecap:round;stroke-linejoin:round;stroke-miterlimit:10;stroke-dasharray:none;stroke-opacity:1"
             id="path51" /></g><g
           id="g53"
           transform="translate(287.2563,410.9692)"><path
             d="M 0,0 C 26.705,16.619 56.123,29.681 87.737,38.4"
             style="fill:none;stroke:#000000;stroke-width:15;stroke-linecap:round;stroke-linejoin:round;stroke-miterlimit:10;stroke-dasharray:none;stroke-opacity:1"
             id="path55" /></g><g
           id="g57"
           transform="translate(190.1025,319.0972)"><path
             d="M 0,0 C 17.083,24.243 37.349,46.25 60.342,65.329"
             style="fill:none;stroke:#000000;stroke-width:15;stroke-linecap:round;stroke-linejoin:round;stroke-miterlimit:10;stroke-dasharray:none;stroke-opacity:1"
             id="path59" /></g><g
           id="g61"
           transform="translate(130.8091,83.1836)"><path
             d="M 0,0 C -8.535,69.779 4.959,137.89 35.44,196.667"
             style="fill:none;stroke:#000000;stroke-width:15;stroke-linecap:round;stroke-linejoin:round;stroke-miterlimit:10;stroke-dasharray:none;stroke-opacity:1"
             id="path63" /></g><g
           id="g65"
           transform="translate(247.5449,410.9692)"><path
             d="M 0,0 C -27.608,17.181 -58.115,30.56 -90.951,39.27"
             style="fill:none;stroke:#000000;stroke-width:15;stroke-linecap:round;stroke-linejoin:round;stroke-miterlimit:10;stroke-dasharray:none;stroke-opacity:1"
             id="path67" /></g><g
           id="g69"
           transform="translate(377.2817,261.7197)"><path
             d="M 0,0 C -21.092,47.348 -52.869,89.469 -92.923,122.705"
             style="fill:none;stroke:#000000;stroke-width:15;stroke-linecap:round;stroke-linejoin:round;stroke-miterlimit:10;stroke-dasharray:none;stroke-opacity:1"
             id="path71" /></g><g
           id="g73"
           transform="translate(402.8896,173.6934)"><path
             d="M 0,0 C -2.251,15.225 -5.549,30.292 -9.855,45.067"
             style="fill:none;stroke:#000000;stroke-width:15;stroke-linecap:round;stroke-linejoin:round;stroke-miterlimit:10;stroke-dasharray:none;stroke-opacity:1"
             id="path75" /></g><g
           id="g77"
           transform="translate(403.8511,82.0483)"><path
             d="M 0,0 C 1.983,15.797 2.865,31.729 2.618,47.649"
             style="fill:none;stroke:#000000;stroke-width:15;stroke-linecap:round;stroke-linejoin:round;stroke-miterlimit:10;stroke-dasharray:none;stroke-opacity:1"
             id="path79" /></g><g
           id="g81"
           transform="translate(155.8662,304.248)"><path
             d="M 0,0 C -34.156,0.174 -68.827,-3.491 -103.477,-11.31"
             style="fill:none;stroke:#000000;stroke-width:15;stroke-linecap:round;stroke-linejoin:round;stroke-miterlimit:10;stroke-dasharray:none;stroke-opacity:1"
             id="path83" /></g><g
           id="g85"
           transform="translate(366.1436,251.7427)"><path
             d="M 0,0 C -50.85,26.658 -106.718,43.866 -164.837,49.998"
             style="fill:none;stroke:#000000;stroke-width:15;stroke-linecap:round;stroke-linejoin:round;stroke-miterlimit:10;stroke-dasharray:none;stroke-opacity:1"
             id="path87" /></g><g
           id="g89"
           transform="translate(485.3613,162.0757)"><path
             d="M 0,0 C -24.141,25.208 -50.975,47.497 -79.897,66.511"
             style="fill:none;stroke:#000000;stroke-width:15;stroke-linecap:round;stroke-linejoin:round;stroke-miterlimit:10;stroke-dasharray:none;stroke-opacity:1"
             id="path91" /></g><g
           id="g93"
           transform="translate(397.4258,260.4048)"><path
             d="M 0,0 C 22.366,36.003 40,75.456 51.943,117.568"
             style="fill:none;stroke:#000000;stroke-width:15;stroke-linecap:round;stroke-linejoin:round;stroke-miterlimit:10;stroke-dasharray:none;stroke-opacity:1"
             id="path95" /></g><g
           id="g97"
           transform="translate(155.8667,67.395)"><path
             d="M 0,0 C 85.718,29.562 160.729,83.992 215.632,155.535"
             style="fill:none;stroke:#000000;stroke-width:15;stroke-linecap:round;stroke-linejoin:round;stroke-miterlimit:10;stroke-dasharray:none;stroke-opacity:1"
             id="path99" /></g><g
           id="g101"
           transform="translate(267.4004,376.813)"><path
             d="m 0,0 c -12.573,0 -22.801,10.278 -22.801,22.913 0,12.634 10.228,22.912 22.801,22.912 12.573,0 22.801,-10.278 22.801,-22.912 C 22.801,10.278 12.573,0 0,0 Z"
             style="fill:none;stroke:#000000;stroke-width:15;stroke-linecap:round;stroke-linejoin:round;stroke-miterlimit:10;stroke-dasharray:none;stroke-opacity:1"
             id="path103" /></g><g
           id="g105"
           transform="translate(178.6675,276.1396)"><path
             d="m 0,0 c -12.573,0 -22.801,10.279 -22.801,22.913 0,12.634 10.228,22.913 22.801,22.913 12.573,0 22.801,-10.279 22.801,-22.913 C 22.801,10.279 12.573,0 0,0 Z"
             style="fill:none;stroke:#000000;stroke-width:15;stroke-linecap:round;stroke-linejoin:round;stroke-miterlimit:10;stroke-dasharray:none;stroke-opacity:1"
             id="path107" /></g><g
           id="g109"
           transform="translate(386.0376,217.6533)"><path
             d="m 0,0 c -12.573,0 -22.801,10.279 -22.801,22.913 0,12.634 10.228,22.913 22.801,22.913 12.573,0 22.801,-10.279 22.801,-22.913 C 22.801,10.279 12.573,0 0,0 Z"
             style="fill:none;stroke:#000000;stroke-width:15;stroke-linecap:round;stroke-linejoin:round;stroke-miterlimit:10;stroke-dasharray:none;stroke-opacity:1"
             id="path111" /></g><g
           id="g113"
           transform="translate(134.2275,37.6167)"><path
             d="m 0,0 c -12.573,0 -22.801,10.278 -22.801,22.913 0,12.634 10.228,22.912 22.801,22.912 12.573,0 22.802,-10.278 22.802,-22.912 C 22.802,10.278 12.573,0 0,0 Z"
             style="fill:none;stroke:#000000;stroke-width:15;stroke-linecap:round;stroke-linejoin:round;stroke-miterlimit:10;stroke-dasharray:none;stroke-opacity:1"
             id="path115" /></g><g
           id="g117"
           transform="translate(401.8911,36.313)"><path
             d="m 0,0 c -12.573,0 -22.801,10.279 -22.801,22.913 0,12.634 10.228,22.913 22.801,22.913 12.573,0 22.802,-10.279 22.802,-22.913 C 22.802,10.279 12.573,0 0,0 Z"
             style="fill:none;stroke:#000000;stroke-width:15;stroke-linecap:round;stroke-linejoin:round;stroke-miterlimit:10;stroke-dasharray:none;stroke-opacity:1"
             id="path119" /></g><g
           id="g121"
           transform="translate(455.0527,377.9731)"><path
             d="m 0,0 c -12.573,0 -22.802,10.279 -22.802,22.913 0,12.634 10.229,22.913 22.802,22.913 12.573,0 22.801,-10.279 22.801,-22.913 C 22.801,10.279 12.573,0 0,0 Z"
             style="fill:none;stroke:#000000;stroke-width:15;stroke-linecap:round;stroke-linejoin:round;stroke-miterlimit:10;stroke-dasharray:none;stroke-opacity:1"
             id="path123" /></g><g
           id="g125"
           transform="translate(397.1675,431.7793)"><path
             d="m 0,0 c -12.573,0 -22.801,10.278 -22.801,22.913 0,12.634 10.228,22.912 22.801,22.912 12.573,0 22.802,-10.278 22.802,-22.912 C 22.802,10.278 12.573,0 0,0 Z"
             style="fill:none;stroke:#000000;stroke-width:15;stroke-linecap:round;stroke-linejoin:round;stroke-miterlimit:10;stroke-dasharray:none;stroke-opacity:1"
             id="path127" /></g><g
           id="g129"
           transform="translate(134.2275,431.7793)"><path
             d="m 0,0 c -12.573,0 -22.801,10.278 -22.801,22.913 0,12.634 10.228,22.912 22.801,22.912 12.573,0 22.802,-10.278 22.802,-22.912 C 22.802,10.278 12.573,0 0,0 Z"
             style="fill:none;stroke:#000000;stroke-width:15;stroke-linecap:round;stroke-linejoin:round;stroke-miterlimit:10;stroke-dasharray:none;stroke-opacity:1"
             id="path131" /></g><g
           id="g133"
           transform="translate(30.3013,264.3345)"><path
             d="m 0,0 c -12.573,0 -22.801,10.278 -22.801,22.913 0,12.634 10.228,22.912 22.801,22.912 12.573,0 22.801,-10.278 22.801,-22.912 C 22.801,10.278 12.573,0 0,0 Z"
             style="fill:none;stroke:#000000;stroke-width:15;stroke-linecap:round;stroke-linejoin:round;stroke-miterlimit:10;stroke-dasharray:none;stroke-opacity:1"
             id="path135" /></g></g></g></g></svg>
